<svg id="visual" viewBox="0 0 900 600" width="900" height="600" xmlns="http://www.w3.org/2000/svg" xmlns:xlink="http://www.w3.org/1999/xlink" version="1.1"><path d="M0 43L25 39C50 35 100 27 150 22C200 17 250 15 300 17C350 19 400 25 450 31C500 37 550 43 600 40C650 37 700 25 750 19C800 13 850 13 875 13L900 13L900 0L875 0C850 0 800 0 750 0C700 0 650 0 600 0C550 0 500 0 450 0C400 0 350 0 300 0C250 0 200 0 150 0C100 0 50 0 25 0L0 0Z" fill="#37227d"></path><path d="M0 103L25 93C50 83 100 63 150 56C200 49 250 55 300 62C350 69 400 77 450 77C500 77 550 69 600 60C650 51 700 41 750 38C800 35 850 39 875 41L900 43L900 11L875 11C850 11 800 11 750 17C700 23 650 35 600 38C550 41 500 35 450 29C400 23 350 17 300 15C250 13 200 15 150 20C100 25 50 33 25 37L0 41Z" fill="#311d73"></path><path d="M0 145L25 131C50 117 100 89 150 81C200 73 250 85 300 96C350 107 400 117 450 114C500 111 550 95 600 87C650 79 700 79 750 75C800 71 850 63 875 59L900 55L900 41L875 39C850 37 800 33 750 36C700 39 650 49 600 58C550 67 500 75 450 75C400 75 350 67 300 60C250 53 200 47 150 54C100 61 50 81 25 91L0 101Z" fill="#2b196a"></path><path d="M0 175L25 160C50 145 100 115 150 113C200 111 250 137 300 152C350 167 400 171 450 161C500 151 550 127 600 120C650 113 700 123 750 118C800 113 850 93 875 83L900 73L900 53L875 57C850 61 800 69 750 73C700 77 650 77 600 85C550 93 500 109 450 112C400 115 350 105 300 94C250 83 200 71 150 79C100 87 50 115 25 129L0 143Z" fill="#251460"></path><path d="M0 247L25 228C50 209 100 171 150 166C200 161 250 189 300 206C350 223 400 229 450 226C500 223 550 211 600 225C650 239 700 279 750 282C800 285 850 251 875 234L900 217L900 71L875 81C850 91 800 111 750 116C700 121 650 111 600 118C550 125 500 149 450 159C400 169 350 165 300 150C250 135 200 109 150 111C100 113 50 143 25 158L0 173Z" fill="#1f0f57"></path><path d="M0 253L25 235C50 217 100 181 150 183C200 185 250 225 300 245C350 265 400 265 450 262C500 259 550 253 600 269C650 285 700 323 750 319C800 315 850 269 875 246L900 223L900 215L875 232C850 249 800 283 750 280C700 277 650 237 600 223C550 209 500 221 450 224C400 227 350 221 300 204C250 187 200 159 150 164C100 169 50 207 25 226L0 245Z" fill="#190b4e"></path><path d="M0 295L25 275C50 255 100 215 150 216C200 217 250 259 300 281C350 303 400 305 450 297C500 289 550 271 600 286C650 301 700 349 750 350C800 351 850 305 875 282L900 259L900 221L875 244C850 267 800 313 750 317C700 321 650 283 600 267C550 251 500 257 450 260C400 263 350 263 300 243C250 223 200 183 150 181C100 179 50 215 25 233L0 251Z" fill="#170c4a"></path><path d="M0 337L25 326C50 315 100 293 150 299C200 305 250 339 300 348C350 357 400 341 450 327C500 313 550 301 600 316C650 331 700 373 750 379C800 385 850 355 875 340L900 325L900 257L875 280C850 303 800 349 750 348C700 347 650 299 600 284C550 269 500 287 450 295C400 303 350 301 300 279C250 257 200 215 150 214C100 213 50 253 25 273L0 293Z" fill="#160c46"></path><path d="M0 463L25 456C50 449 100 435 150 438C200 441 250 461 300 480C350 499 400 517 450 522C500 527 550 519 600 510C650 501 700 491 750 492C800 493 850 505 875 511L900 517L900 323L875 338C850 353 800 383 750 377C700 371 650 329 600 314C550 299 500 311 450 325C400 339 350 355 300 346C250 337 200 303 150 297C100 291 50 313 25 324L0 335Z" fill="#140c43"></path><path d="M0 541L25 540C50 539 100 537 150 544C200 551 250 567 300 574C350 581 400 579 450 573C500 567 550 557 600 552C650 547 700 547 750 549C800 551 850 555 875 557L900 559L900 515L875 509C850 503 800 491 750 490C700 489 650 499 600 508C550 517 500 525 450 520C400 515 350 497 300 478C250 459 200 439 150 436C100 433 50 447 25 454L0 461Z" fill="#130c3f"></path><path d="M0 601L25 601C50 601 100 601 150 601C200 601 250 601 300 601C350 601 400 601 450 601C500 601 550 601 600 601C650 601 700 601 750 601C800 601 850 601 875 601L900 601L900 557L875 555C850 553 800 549 750 547C700 545 650 545 600 550C550 555 500 565 450 571C400 577 350 579 300 572C250 565 200 549 150 542C100 535 50 537 25 538L0 539Z" fill="#120c3b"></path></svg>